<svg width="72" height="72" viewBox="0 0 72 72" fill="none" xmlns="http://www.w3.org/2000/svg">
<path d="M10.9689 42.3341H27.7254V65.815H2.3208V46.3799C2.3208 34.9114 4.56015 25.6891 8.88945 18.5812C12.9398 12.203 19.2308 8.03548 28.0002 6.18506V13.3229C22.2428 14.3331 17.8334 16.8621 15.122 21.123C12.2628 25.616 10.9689 31.3725 10.9689 40.3341V42.3341Z" fill="url(#paint0_linear_4036_14328)"/>
<path d="M52.6483 42.3341H69.4048V65.815H44.0002V46.3799C44.0002 34.9114 46.2396 25.6891 50.5689 18.5812C54.6193 12.203 60.9103 8.03548 69.6796 6.18506V13.3229C63.9222 14.3331 59.5129 16.8621 56.8015 21.123C53.9422 25.616 52.6483 31.3725 52.6483 40.3341V42.3341Z" fill="url(#paint1_linear_4036_14328)"/>
<defs>
<linearGradient id="paint0_linear_4036_14328" x1="2.3208" y1="65.815" x2="74.8335" y2="6.18506" gradientUnits="userSpaceOnUse">
<stop stop-color="#FF3B0A"/>
<stop offset="0.5" stop-color="#FF0A8D" stop-opacity="0.32"/>
<stop offset="1" stop-color="#7076FF"/>
</linearGradient>
<linearGradient id="paint1_linear_4036_14328" x1="2.3208" y1="65.815" x2="74.8335" y2="6.18506" gradientUnits="userSpaceOnUse">
<stop stop-color="#FF3B0A"/>
<stop offset="0.5" stop-color="#FF0A8D" stop-opacity="0.32"/>
<stop offset="1" stop-color="#7076FF"/>
</linearGradient>
</defs>
</svg>
